<svg width="22" height="22" viewBox="0 0 22 22" fill="none" xmlns="http://www.w3.org/2000/svg">
    <path d="M20.3215 10.0344C19.8536 9.22941 19.1954 8.58406 18.3726 8.09821C17.7577 7.74025 17.1201 7.51306 16.4016 7.41549V4.85763C17.1201 4.55256 17.566 3.87731 17.566 3.08955C17.566 2.01582 16.705 1.14572 15.6321 1.14572C14.5584 1.14572 13.6822 2.01582 13.6822 3.08955C13.6822 3.87731 14.1024 4.55256 14.8209 4.85763V7.41664C14.2461 7.4997 13.65 7.67889 13.1057 7.95422C11.9939 7.10984 8.34823 4.33974 6.21558 2.72182C6.26616 2.53946 6.30511 2.35151 6.30511 2.1532C6.30511 0.963939 5.34203 0 4.15234 0C2.96265 0 2 0.963939 2 2.1532C2 3.34232 2.96365 4.30654 4.15335 4.30654C4.55915 4.30654 4.93449 4.18785 5.25839 3.9927L5.70846 4.33413L11.8927 8.78998C11.5658 9.09017 11.2613 9.4316 11.0177 9.8147C10.5241 10.5957 10.2225 11.455 10.2225 12.3924V12.588C10.2225 13.246 10.3475 13.8672 10.5605 14.4507C10.748 14.9603 11.0222 15.4236 11.3618 15.8425L9.30929 17.9C9.01184 17.7893 8.6888 17.7665 8.37878 17.8345C8.06876 17.9025 7.78487 18.0583 7.56104 18.2834C7.40607 18.4376 7.28324 18.621 7.19967 18.823C7.1161 19.025 7.07345 19.2416 7.07419 19.4603C7.07433 19.9047 7.24749 20.3225 7.5619 20.6367C7.71601 20.7918 7.89937 20.9148 8.10134 20.9985C8.30331 21.0822 8.51989 21.125 8.73852 21.1245C8.95722 21.125 9.17385 21.0822 9.37589 20.9985C9.57793 20.9148 9.76136 20.7918 9.91557 20.6367C10.0704 20.4825 10.1932 20.2992 10.2768 20.0972C10.3605 19.8953 10.4032 19.6788 10.4027 19.4603C10.4027 19.2883 10.3761 19.1204 10.3261 18.9609L12.4476 16.8392C12.7384 17.0401 13.0525 17.2092 13.3902 17.3551C14.0563 17.643 14.7914 17.8185 15.596 17.8185H15.7435C16.633 17.8185 17.472 17.6096 18.2608 17.1822C19.092 16.7305 19.7425 16.1129 20.2339 15.3244C20.728 14.5338 21 13.6603 21 12.6992V12.6512C21 11.7058 20.7811 10.8335 20.3215 10.0344ZM17.7294 14.4852C17.1536 15.1251 16.4917 15.5193 15.7435 15.5193H15.6202C15.1928 15.5193 14.7748 15.4012 14.3655 15.1863C13.9042 14.9498 13.5536 14.6124 13.2666 14.1852C12.97 13.7659 12.8091 13.308 12.8091 12.8226V12.6752C12.8091 12.198 12.9006 11.7455 13.1314 11.3181C13.3782 10.8509 13.7114 10.4876 14.1546 10.1988C14.5897 9.91199 15.0544 9.77131 15.572 9.77131H15.6202C16.0895 9.77131 16.5338 9.86385 16.9531 10.0784C17.3803 10.3072 17.7294 10.6197 18 11.0308C18.2628 11.4421 18.4192 11.8857 18.4694 12.369C18.4774 12.4694 18.4814 12.5723 18.4814 12.6706C18.4814 13.3264 18.2308 13.9339 17.7294 14.4852Z" fill="#242748"/>
</svg>
